:SAMPLES-PER-SECOND 30
:FULLY-SPECIFIED
:DEGREES
1
root  19.083 39.2954 1.80854 -97.7317 -89.1512 91.247
RightUpLeg  0.665323 -9.24463 -5.05272
RightLeg  14.0878 11.3848 2.41436
RightFoot  -9.6967 -0.0876307 1.461
RightToes  -2.21189e-009 0 -3.6325e-017
Spine  6.16566 -0.711321 8.76424
Spine1  7.35387 0.36941 -2.31487
HEad  3.17109 1.07838 -6.10419
LeftShoulder1  -0.313588 4.37047 -30.0271
LeftArm  -6.31075 11.4675 -43.2968
LeftForeArm  28.4799 -9.85148 -7.02577
LeftHand  -0.0346576 5.5863 -1.31898
RightShoulder  -0.428293 -4.79639 26.2048
RightArm  16.4491 -3.56383 45.9114
RightForeArm  9.73949 10.3232 7.50265
RightHand  -0.311867 3.35878 -4.40695
LeftUpLeg  -10.186 -1.1944 2.20189
LeftLeg  18.0339 -0.334025 0.197966
LeftFoot  -2.32353 0.240236 -2.89578
LeftToes  -4.03379e-008 1.61488e-010 -5.81581e-011
2
root  18.7829 39.298 1.90742 -140.619 -89.0373 133.846
RightUpLeg  1.32538 -8.72581 -4.95878
RightLeg  14.1361 11.5665 2.16161
RightFoot  -9.87305 -0.0846471 1.44798
RightToes  -2.21189e-009 0 -3.6325e-017
Spine  5.40601 -0.539316 8.60536
Spine1  7.85293 0.598299 -2.63836
HEad  2.94853 -0.219905 -6.11714
LeftShoulder1  -0.265465 4.24376 -29.7422
LeftArm  -6.26096 12.1522 -43.3291
LeftForeArm  27.5882 -9.97883 -7.03029
LeftHand  -0.039293 6.21394 -0.789657
RightShoulder  -0.482453 -4.94435 26.6433
RightArm  16.7674 -3.38848 45.7859
RightForeArm  9.45389 10.6052 7.49226
RightHand  -0.285269 4.11301 -3.75465
LeftUpLeg  -8.25873 -2.39728 2.01638
LeftLeg  16.1642 -1.13234 -0.0043901
LeftFoot  -1.26081 0.139622 -1.43153
LeftToes  -4.03379e-008 1.61488e-010 -5.81581e-011
3
root  18.4061 39.3681 2.06428 -155.399 -88.3268 148.288
RightUpLeg  2.52443 -7.82451 -5.28994
RightLeg  13.3568 11.5314 1.8056
RightFoot  -9.89073 -0.0893134 1.75143
RightToes  -2.21189e-009 0 -3.6325e-017
Spine  4.48815 -0.466863 7.78623
Spine1  8.26763 0.689229 -3.338
HEad  2.52181 -0.894678 -5.8253
LeftShoulder1  -0.302899 4.35031 -29.6346
LeftArm  -6.38206 13.0533 -43.2074
LeftForeArm  26.7972 -10.2725 -6.90878
LeftHand  -0.0557622 7.51495 -0.846021
RightShoulder  -0.518303 -5.03636 27.0067
RightArm  17.1358 -3.41195 45.8544
RightForeArm  9.04313 11.0701 7.42554
RightHand  -0.294145 3.53582 -4.07501
LeftUpLeg  -5.97245 -2.45906 1.30396
LeftLeg  14.0932 -1.69686 0.261103
LeftFoot  -1.97661 -0.149869 1.94643
LeftToes  -4.03379e-008 1.61488e-010 -5.81581e-011
4
root  18.0734 39.4216 2.21662 -155.746 -87.4778 148.238
RightUpLeg  3.14159 -5.6235 -5.6631
RightLeg  13.6018 10.152 1.40519
RightFoot  -10.0006 -0.0937254 2.1881
RightToes  -2.21189e-009 0 -3.6325e-017
Spine  3.88662 -0.375092 6.08972
Spine1  8.44537 0.603757 -3.30116
HEad  2.20177 -1.85079 -6.03026
LeftShoulder1  -0.33259 4.42727 -29.8599
LeftArm  -5.92417 13.6093 -42.8327
LeftForeArm  26.5133 -10.6463 -6.92149
LeftHand  -0.0218594 4.6043 -0.689843
RightShoulder  -0.55857 -5.14768 27.2078
RightArm  17.3122 -3.40042 46.1104
RightForeArm  9.16185 11.6411 7.25248
RightHand  -0.260003 3.72729 -3.56736
LeftUpLeg  -4.37587 0.295355 0.584732
LeftLeg  12.9351 -3.27019 0.277421
LeftFoot  -1.61772 -0.196808 2.43061
LeftToes  -4.03379e-008 1.61488e-010 -5.81581e-011
5
root  17.8024 39.384 2.37994 -138.103 -86.795 130.303
RightUpLeg  2.62149 -2.68033 -6.80913
RightLeg  15.9062 7.49798 1.55388
RightFoot  -10.7016 -0.0841568 2.13715
RightToes  -2.21189e-009 0 -3.6325e-017
Spine  3.89528 -0.493875 3.54425
Spine1  7.96808 0.228086 -2.7658
HEad  1.78697 -2.68182 -6.25388
LeftShoulder1  -0.371825 4.53068 -30.0576
LeftArm  -6.03557 13.4109 -42.4063
LeftForeArm  26.4986 -10.3769 -6.95956
LeftHand  -0.0274794 5.1422 -0.20488
RightShoulder  -0.552991 -5.12987 27.2287
RightArm  16.3078 -3.84986 46.7563
RightForeArm  9.43036 12.2105 6.80728
RightHand  -0.257261 3.62051 -3.56693
LeftUpLeg  -3.50234 1.50964 -0.635565
LeftLeg  12.6829 -4.32459 -0.0729026
LeftFoot  -1.83184 -0.158982 2.04535
LeftToes  -4.03379e-008 1.61488e-010 -5.81581e-011
6
root  17.5817 39.3074 2.56544 -131.371 -86.1728 122.956
RightUpLeg  1.91637 -0.567939 -7.89919
RightLeg  19.1308 5.7304 2.04617
RightFoot  -11.3208 -0.0770804 2.94261
RightToes  -2.21189e-009 0 -3.6325e-017
Spine  4.29919 -0.511077 2.17762
Spine1  7.7472 0.22662 -3.46694
HEad  0.028026 -3.92477 -6.2768
LeftShoulder1  -0.283511 4.29768 -29.5574
LeftArm  -6.575 12.8118 -42.688
LeftForeArm  26.4867 -10.0021 -6.88985
LeftHand  -0.0273506 5.30915 0.431842
RightShoulder  -0.533851 -5.08292 27.012
RightArm  14.2001 -4.89355 47.9236
RightForeArm  9.30427 12.8763 6.12161
RightHand  -0.298884 4.01801 -3.95436
LeftUpLeg  -2.60319 2.652 -1.53059
LeftLeg  12.9717 -5.24642 -0.459828
LeftFoot  -2.49751 -0.168133 2.37234
LeftToes  -4.03379e-008 1.61488e-010 -5.81581e-011
7
root  17.4334 39.2009 2.75682 -137.84 -84.9868 128.832
RightUpLeg  0.0882207 0.569828 -8.92296
RightLeg  23.8116 6.08475 2.73717
RightFoot  -11.4813 -0.0721029 4.64892
RightToes  -2.21189e-009 0 -3.6325e-017
Spine  5.05808 -0.153499 1.5595
Spine1  7.58144 0.775703 -4.98795
HEad  -1.76029 -4.9274 -5.69742
LeftShoulder1  -0.231643 4.15667 -29.3287
LeftArm  -6.15638 12.0885 -42.4843
LeftForeArm  25.8663 -10.7586 -6.79901
LeftHand  -0.0286202 5.24421 -0.0164148
RightShoulder  -0.523616 -5.05522 26.9478
RightArm  14.2033 -5.1231 48.6541
RightForeArm  7.3712 13.6624 5.94676
RightHand  -0.33061 4.51894 -4.15776
LeftUpLeg  -1.95479 4.0812 -2.17087
LeftLeg  13.6559 -5.35344 -0.794401
LeftFoot  -3.31689 -0.181909 2.87901
LeftToes  -4.03379e-008 1.61488e-010 -5.81581e-011
8
root  17.3384 39.0715 2.95804 -141.37 -83.6499 131.636
RightUpLeg  -2.24571 0.741714 -10.5187
RightLeg  29.3429 7.57403 4.36804
RightFoot  -11.0758 -0.0935372 7.27329
RightToes  -2.21189e-009 0 -3.6325e-017
Spine  6.27412 0.160645 0.362298
Spine1  7.15819 1.06736 -5.76438
HEad  -3.20141 -5.16189 -6.00496
LeftShoulder1  -0.278176 4.27851 -29.7687
LeftArm  -5.6084 11.1245 -41.888
LeftForeArm  24.5293 -11.7796 -6.6303
LeftHand  -0.0289964 5.01928 0.538487
RightShoulder  -0.48066 -4.92772 26.8872
RightArm  15.0946 -4.5148 49.0704
RightForeArm  7.25298 14.2116 5.94975
RightHand  -0.310413 4.37673 -3.96912
LeftUpLeg  -1.34565 5.13521 -2.88493
LeftLeg  14.5304 -4.94011 -1.21091
LeftFoot  -4.19276 -0.17405 3.18574
LeftToes  -4.03379e-008 1.61488e-010 -5.81581e-011
